<svg xmlns="http://www.w3.org/2000/svg" xmlns:xlink="http://www.w3.org/1999/xlink" viewBox="0 0 2724.37 1840.3"><defs><style>.cls-1{fill:#0f0f0f;}.cls-2{isolation:isolate;}.cls-3{clip-path:url(#clip-path);}.cls-10,.cls-11,.cls-12,.cls-13,.cls-4,.cls-5,.cls-6,.cls-7,.cls-8,.cls-9{mix-blend-mode:color-burn;}.cls-4{fill:url(#radial-gradient);}.cls-5{fill:url(#radial-gradient-2);}.cls-6{fill:url(#radial-gradient-3);}.cls-7{fill:url(#radial-gradient-4);}.cls-8{fill:url(#radial-gradient-5);}.cls-9{fill:url(#radial-gradient-6);}.cls-10{fill:url(#radial-gradient-7);}.cls-11{fill:url(#radial-gradient-8);}.cls-12{fill:url(#radial-gradient-9);}.cls-13{fill:url(#radial-gradient-10);}.cls-14,.cls-15,.cls-16,.cls-17,.cls-18,.cls-19,.cls-20,.cls-21,.cls-22,.cls-23{mix-blend-mode:color-dodge;}.cls-14{fill:url(#radial-gradient-11);}.cls-15{fill:url(#radial-gradient-12);}.cls-16{fill:url(#radial-gradient-13);}.cls-17{fill:url(#radial-gradient-14);}.cls-18{fill:url(#radial-gradient-15);}.cls-19{fill:url(#radial-gradient-16);}.cls-20{fill:url(#radial-gradient-17);}.cls-21{fill:url(#radial-gradient-18);}.cls-22{fill:url(#radial-gradient-19);}.cls-23{fill:url(#radial-gradient-20);}</style><clipPath id="clip-path" transform="translate(58.23 52.92)"><rect class="cls-1" width="2598.08" height="1732.05"/></clipPath><radialGradient id="radial-gradient" cx="2018.61" cy="1765.71" r="786.73" gradientTransform="translate(-182.18 -1387.53) rotate(45) scale(1.5 0.52)" gradientUnits="userSpaceOnUse"><stop offset="0" stop-color="#ededed"/><stop offset="0.15" stop-color="#f4f4f4"/><stop offset="0.49" stop-color="#fcfcfc"/><stop offset="1" stop-color="#fff"/></radialGradient><radialGradient id="radial-gradient-2" cx="1186.55" cy="2364.57" r="1151.33" xlink:href="#radial-gradient"/><radialGradient id="radial-gradient-3" cx="1024.2" cy="3076.47" r="1642.36" xlink:href="#radial-gradient"/><radialGradient id="radial-gradient-4" cx="1546.07" cy="1294.85" r="1358.55" xlink:href="#radial-gradient"/><radialGradient id="radial-gradient-5" cx="2359.98" cy="-134.22" r="896.07" xlink:href="#radial-gradient"/><radialGradient id="radial-gradient-6" cx="2064.25" cy="1014.24" r="1119.78" xlink:href="#radial-gradient"/><radialGradient id="radial-gradient-7" cx="1786.06" cy="482.31" r="776.34" xlink:href="#radial-gradient"/><radialGradient id="radial-gradient-8" cx="1388.94" cy="3058.15" r="1275.86" xlink:href="#radial-gradient"/><radialGradient id="radial-gradient-9" cx="1763.18" cy="2696.5" r="1711.76" xlink:href="#radial-gradient"/><radialGradient id="radial-gradient-10" cx="1174.13" cy="3599.31" r="1318.2" xlink:href="#radial-gradient"/><radialGradient id="radial-gradient-11" cx="1586.04" cy="3135.66" r="866.21" gradientTransform="translate(-182.18 -1387.53) rotate(45) scale(1.5 0.52)" gradientUnits="userSpaceOnUse"><stop offset="0" stop-color="#c9c9c9"/><stop offset="0.06" stop-color="#b6b6b6"/><stop offset="0.24" stop-color="#7f7f7f"/><stop offset="0.42" stop-color="#515151"/><stop offset="0.59" stop-color="#2e2e2e"/><stop offset="0.74" stop-color="#151515"/><stop offset="0.89" stop-color="#050505"/><stop offset="1"/></radialGradient><radialGradient id="radial-gradient-12" cx="1538.92" cy="2185.55" r="1126.57" xlink:href="#radial-gradient-11"/><radialGradient id="radial-gradient-13" cx="2184.62" cy="399.44" r="1822.91" xlink:href="#radial-gradient-11"/><radialGradient id="radial-gradient-14" cx="1979.47" cy="-94.25" r="774.68" xlink:href="#radial-gradient-11"/><radialGradient id="radial-gradient-15" cx="2443.16" cy="715.5" r="1969.68" xlink:href="#radial-gradient-11"/><radialGradient id="radial-gradient-16" cx="1790.47" cy="1407.92" r="685.99" xlink:href="#radial-gradient-11"/><radialGradient id="radial-gradient-17" cx="2285.9" cy="1036.21" r="727.2" xlink:href="#radial-gradient-11"/><radialGradient id="radial-gradient-18" cx="1336.28" cy="1852.29" r="1358.69" xlink:href="#radial-gradient-11"/><radialGradient id="radial-gradient-19" cx="1345.65" cy="3924.61" r="1319.1" xlink:href="#radial-gradient-11"/><radialGradient id="radial-gradient-20" cx="2170.56" cy="-636.88" r="762.89" xlink:href="#radial-gradient-11"/></defs><title>admin</title><g class="cls-2"><g id="Layer_1" data-name="Layer 1"><rect class="cls-1" x="58.23" y="52.92" width="2598.08" height="1732.05"/><g class="cls-3"><path class="cls-4" d="M2111.46,1787.39c-99.3-203.05-276-444-506.76-674.69C1212,720,789.62,483.55,575,519.46L1842.92,1787.39Z" transform="translate(58.23 52.92)"/><path class="cls-5" d="M1508,1787.39C1532,1464.19,1190.47,869.18,635.79,314.5,499.73,178.45,361.26,55.24,225-52.92H-58.23V259.23L1469.92,1787.39Z" transform="translate(58.23 52.92)"/><path class="cls-6" d="M1511.38,1787.39C1324.75,1334.35,925.27,765,382.9,222.59Q238.14,77.82,91.6-52.92H-58.23V692.62L1036.53,1787.39Z" transform="translate(58.23 52.92)"/><path class="cls-7" d="M2498.26,1787.39c-78.05-399-454.38-995.15-1015.53-1556.3-100.88-100.88-202.89-195.73-304.68-284H445l1840.3,1840.31Z" transform="translate(58.23 52.92)"/><path class="cls-8" d="M2666.14,710.58c-437.8-427.73-901.37-683-1139.83-643.09L2666.14,1207.32Z" transform="translate(58.23 52.92)"/><path class="cls-9" d="M2666.14,1537.79c-147.06-243.81-358.46-512.27-617.89-771.7-428.68-428.68-882.14-726.5-1208-819H608L2448.3,1787.39h217.84Z" transform="translate(58.23 52.92)"/><path class="cls-10" d="M1241.17-52.92H935.89l1471,1471c35.44-211.79-197.85-628.55-585.4-1016.1C1625.44,205.92,1421.88,49.36,1241.17-52.92Z" transform="translate(58.23 52.92)"/><path class="cls-11" d="M1443.43,1787.39c-164.43-319.89-442.22-692.85-800-1050.66C409.63,503,169.43,303.44-58.23,147.29V742.94L986.21,1787.39Z" transform="translate(58.23 52.92)"/><path class="cls-12" d="M2123.88,1787.39c-209.76-306.18-478.08-629.34-792.54-943.8C962.24,474.49,581.15,168.93,229.62-52.92H-58.23V403.71L1325.45,1787.39Z" transform="translate(58.23 52.92)"/><path class="cls-13" d="M1066,1787.39c-169.11-333.05-458.44-723.05-832.44-1097C137,593.73,39.26,502.79-58.23,418.09v711.78l657.51,657.52Z" transform="translate(58.23 52.92)"/><path class="cls-14" d="M1192,1787.39c-113.83-205.66-292-439.18-516.76-663.91C424.75,873,163.34,680.28-58.23,570.13V870.58l916.8,916.81Z" transform="translate(58.23 52.92)"/><path class="cls-15" d="M1871.12,1787.39c-110.55-322.16-399.59-749.54-805-1154.9C765,331.29,451.63,94.34,178.31-52.92H-58.23v186L1596.05,1787.39Z" transform="translate(58.23 52.92)"/><path class="cls-16" d="M2666.14,423.82c-3.33-3.34-6.62-6.69-9.95-10C2487.6,245.21,2316.67,89.09,2146.88-52.92H1178.1l1488,1488Z" transform="translate(58.23 52.92)"/><path class="cls-17" d="M2666.14,935.61c-101.84-169.67-249-356.85-429.8-537.67C2042.65,204.26,1841.66,49.19,1662.7-52.92h-307L2666.14,1257.54Z" transform="translate(58.23 52.92)"/><path class="cls-18" d="M2666.14,553.64c-243.87-228.51-489.76-432.21-728.83-606.56h-964L2666.14,1639.9Z" transform="translate(58.23 52.92)"/><path class="cls-19" d="M1973.36,1674.65c31.31-187.15-174.83-555.41-517.28-897.86S745.37,228.2,558.23,259.52Z" transform="translate(58.23 52.92)"/><path class="cls-20" d="M2606.48,1787.39c-90.68-190-256.31-417.37-473.86-634.92-363-363-753.41-581.55-951.8-548.35L2364.09,1787.39Z" transform="translate(58.23 52.92)"/><path class="cls-21" d="M2076.15,1787.39c-69.29-399-448.74-1005.57-1019.21-1576C963.54,118,869.18,29.71,774.92-52.92h-736l1840.3,1840.31Z" transform="translate(58.23 52.92)"/><path class="cls-22" d="M954.81,1787.39c-167.69-256.17-391-530.5-657.28-796.73C179.77,872.9,60.43,763.58-58.23,663.69v703l420.65,420.66Z" transform="translate(58.23 52.92)"/><path class="cls-23" d="M2666.14,441.45q-16.54-17-33.49-34c-201.42-201.42-410.86-360.42-594.29-460.4H1749l917.14,917.14Z" transform="translate(58.23 52.92)"/></g></g></g></svg>